HIERARCHY
ROOT Hips
{
	OFFSET 0.00000 0.00000 0.00000
	CHANNELS 6 Xposition Yposition Zposition Zrotation Yrotation Xrotation 
	JOINT RightUpLegDummy
	{
		OFFSET 0 0 0
		CHANNELS 3 Zrotation Yrotation Xrotation
		JOINT RightUpLeg
		{
			OFFSET -3.52197 -3.41223 0.04002
			CHANNELS 3 Zrotation Yrotation Xrotation
			JOINT RightLeg
			{
				OFFSET 0.00006 -17.42390 1.60435
				CHANNELS 3 Zrotation Yrotation Xrotation
				JOINT RightFoot
				{
					OFFSET 0.06153 -16.50078 -1.63901
					CHANNELS 3 Zrotation Yrotation Xrotation
					JOINT RightToes
					{
						OFFSET 0.00298 -1.73825 3.34613
						CHANNELS 3 Zrotation Yrotation Xrotation
						End Site
						{
							OFFSET 0.00480 -0.05416 3.85043
						}
					}
				}
			}
		}
	}
	JOINT SpineDummy
	{
		OFFSET 0 0 0
		CHANNELS 3 Zrotation Yrotation Xrotation
		JOINT Spine
		{
			OFFSET 0.00000 4.68130 0.00000
			CHANNELS 3 Zrotation Yrotation Xrotation
			JOINT Spine1
			{
				OFFSET -0.00000 10.10138 0.05002
				CHANNELS 3 Zrotation Yrotation Xrotation
				JOINT HEadDummy
				{
					OFFSET 0 0 0
					CHANNELS 3 Zrotation Yrotation Xrotation
					JOINT Head
					{
						OFFSET -0.00000 3.43865 0.00438
						CHANNELS 3 Zrotation Yrotation Xrotation
						End Site
						{
							OFFSET -0.11417 5.02924 0.98962
						}
					}
				}
				JOINT LeftShoulder1Dummy
				{
					OFFSET 0 0 0
					CHANNELS 3 Zrotation Yrotation Xrotation
					JOINT LeftShoulder1
					{
						OFFSET 3.53937 -0.14262 -0.08662
						CHANNELS 3 Zrotation Yrotation Xrotation
						JOINT LeftArm
						{
							OFFSET 4.04833 -0.00133 0.12681
							CHANNELS 3 Zrotation Yrotation Xrotation
							JOINT LeftForeArm
							{
								OFFSET 10.33880 -0.01036 -0.55515
								CHANNELS 3 Zrotation Yrotation Xrotation
								JOINT LeftHand
								{
									OFFSET 8.69677 0.07543 0.40060
									CHANNELS 3 Zrotation Yrotation Xrotation
									End Site
									{
										OFFSET 5.28377 -0.21905 0.59205
									}
								}
							}
						}
					}
				}
				JOINT RightShoulderDummy
				{
					OFFSET 0 0 0
					CHANNELS 3 Zrotation Yrotation Xrotation
					JOINT RightShoulder
					{
						OFFSET -3.53937 -0.14262 -0.08660
						CHANNELS 3 Zrotation Yrotation Xrotation
						JOINT RightArm
						{
							OFFSET -4.04833 -0.00133 0.12683
							CHANNELS 3 Zrotation Yrotation Xrotation
							JOINT RightForeArm
							{
								OFFSET -10.37987 -0.01039 -0.55511
								CHANNELS 3 Zrotation Yrotation Xrotation
								JOINT RightHand
								{
									OFFSET -8.67398 0.07538 0.40058
									CHANNELS 3 Zrotation Yrotation Xrotation
									End Site
									{
										OFFSET -5.24810 -0.21916 0.59204
									}
								}
							}
						}
					}
				}
			}
		}
	}
	JOINT LeftUpLegDummy
	{
		OFFSET 0 0 0
		CHANNELS 3 Zrotation Yrotation Xrotation
		JOINT LeftUpLeg
		{
			OFFSET 3.52197 -3.41223 0.04002
			CHANNELS 3 Zrotation Yrotation Xrotation
			JOINT LeftLeg
			{
				OFFSET -0.00012 -17.42399 1.60337
				CHANNELS 3 Zrotation Yrotation Xrotation
				JOINT LeftFoot
				{
					OFFSET -0.09972 -16.50070 -1.63802
					CHANNELS 3 Zrotation Yrotation Xrotation
					JOINT LeftToes
					{
						OFFSET -0.01575 -1.73823 3.34611
						CHANNELS 3 Zrotation Yrotation Xrotation
						End Site
						{
							OFFSET 0.03150 -0.01868 3.85031
						}
					}
				}
			}
		}
	}
}
MOTION
Frames: 9
Frame Time: 0.033333
-0.6094 40.1963 -4.4242 -1.9576 -5.4123 -0.0510 0.0000 0.0000 0.0000 0.4188 -1.7440 -0.0467 -1.5234 -5.7436 1.8654 0.5012 -0.0654 -1.0917 0.0000 -0.0000 0.0000 0.0000 0.0000 0.0000 0.9832 -0.3727 -0.4459 3.5339 -1.1500 1.3245 -0.0000 0.0000 -0.0000 3.1518 -0.2680 -4.1928 -0.0000 0.0000 -0.0000 -34.6113 -2.6414 2.4889 -45.0103 -15.6195 -17.4174 -10.2468 5.0750 49.9828 13.4297 -3.4984 -0.9937 -0.0000 0.0000 -0.0000 34.3606 5.1100 3.4789 40.9137 5.7707 -16.1718 10.7427 0.2180 25.3022 -12.0241 2.7543 -0.8220 0.0000 0.0000 0.0000 2.8188 2.4408 0.3341 4.0395 18.0267 5.6059 -0.2215 0.0514 -3.9773 0.0000 0.0000 -0.0000
-0.6094 40.1963 -4.4210 -1.9576 -5.4123 -0.0178 0.0000 0.0000 0.0000 0.4188 -1.7387 -0.0815 -1.5341 -5.7480 1.8722 0.5169 -0.0664 -1.0917 0.0000 -0.0000 0.0000 0.0000 0.0000 0.0000 0.9923 -0.3727 -0.4996 3.5097 -1.1489 1.3513 -0.0000 0.0000 -0.0000 3.1710 -0.1858 -4.1827 -0.0000 0.0000 -0.0000 -34.6113 -2.6296 2.4889 -45.0409 -15.5936 -17.3082 -10.3160 5.0794 49.8088 13.5084 -3.3494 -0.9887 -0.0000 0.0000 -0.0000 34.3751 5.1101 3.4789 40.8905 5.7642 -16.1794 10.7417 0.2345 25.1198 -11.7785 2.3606 -0.7676 0.0000 0.0000 0.0000 2.8042 2.4328 0.3034 4.0373 18.0590 5.6052 -0.1907 0.0494 -3.9773 0.0000 0.0000 -0.0000
-0.6094 40.1963 -4.4170 -1.9576 -5.4123 0.0220 0.0000 0.0000 0.0000 0.4260 -1.7156 -0.1104 -1.5619 -5.7731 1.8559 0.5566 -0.0690 -1.0881 0.0000 -0.0000 0.0000 0.0000 0.0000 0.0000 1.0115 -0.3660 -0.5481 3.4838 -1.1392 1.3768 -0.0000 0.0000 -0.0000 3.1757 -0.1141 -4.1737 -0.0000 0.0000 -0.0000 -34.6113 -2.6185 2.4889 -45.0749 -15.5886 -17.1935 -10.3838 5.0829 49.6648 13.6509 -3.1734 -0.9827 -0.0000 0.0000 -0.0000 34.3691 5.1078 3.4789 40.8773 5.7513 -16.1586 10.7560 0.2664 24.9112 -11.5483 1.9904 -0.7179 0.0000 0.0000 0.0000 2.7944 2.4254 0.2689 4.0357 18.0824 5.6004 -0.1752 0.0484 -3.9773 0.0000 0.0000 -0.0000
-0.6094 40.1963 -4.4152 -1.9544 -5.4123 0.0336 0.0000 0.0000 0.0000 0.4389 -1.6964 -0.1115 -1.5814 -5.7935 1.8324 0.5764 -0.0703 -1.0750 0.0000 -0.0000 0.0000 0.0000 0.0000 0.0000 1.0301 -0.3417 -0.5304 3.4712 -1.1121 1.3618 -0.0000 0.0000 -0.0000 3.1401 -0.1718 -4.1806 -0.0000 0.0000 -0.0000 -34.6077 -2.6295 2.4930 -45.0803 -15.6115 -17.2084 -10.3700 5.0811 49.7297 13.7225 -3.1943 -0.9896 -0.0000 0.0000 -0.0000 34.3375 5.0974 3.4789 40.8958 5.7219 -16.1166 10.7818 0.2986 24.8318 -11.5163 1.9478 -0.7120 0.0000 0.0000 0.0000 2.7945 2.4222 0.2615 4.0380 18.0736 5.5919 -0.1748 0.0484 -3.9773 0.0000 0.0000 -0.0000
-0.6094 40.1963 -4.4144 -1.9524 -5.4110 0.0216 0.0000 0.0000 0.0000 0.4355 -1.7056 -0.1120 -1.5719 -5.7861 1.8384 0.5446 -0.0683 -1.0749 0.0000 -0.0000 0.0000 0.0000 0.0000 0.0000 1.0353 -0.3193 -0.4933 3.4635 -1.0869 1.3420 -0.0000 0.0000 -0.0000 3.0901 -0.2924 -4.2068 -0.0000 0.0000 -0.0000 -34.5891 -2.6573 2.5031 -45.0597 -15.6359 -17.3239 -10.2992 5.0763 49.9200 13.6680 -3.4108 -1.0094 -0.0000 0.0000 -0.0000 34.3349 5.0978 3.4789 40.9094 5.6811 -16.1005 10.7920 0.3208 24.8546 -11.5509 2.0364 -0.7224 0.0000 0.0000 0.0000 2.7917 2.4214 0.2735 4.0389 18.0677 5.5897 -0.1619 0.0476 -3.9776 0.0000 0.0000 -0.0000
-0.6094 40.1963 -4.4134 -1.9513 -5.4016 0.0109 0.0000 0.0000 0.0000 0.4214 -1.7254 -0.1124 -1.5551 -5.7775 1.8685 0.5112 -0.0661 -1.0890 0.0000 -0.0000 0.0000 0.0000 0.0000 0.0000 1.0160 -0.3196 -0.5011 3.4701 -1.0881 1.3667 -0.0000 0.0000 -0.0000 3.0672 -0.2960 -4.2509 -0.0000 0.0000 -0.0000 -34.5645 -2.6732 2.5080 -45.0297 -15.6613 -17.4030 -10.2519 5.0732 50.0485 13.5713 -3.5650 -1.0190 -0.0000 0.0000 -0.0000 34.3698 5.1026 3.4789 40.9041 5.6499 -16.1135 10.7803 0.3430 24.8808 -11.5062 2.0100 -0.7171 0.0000 0.0000 0.0000 2.7896 2.4220 0.2842 4.0349 18.0722 5.5882 -0.1363 0.0459 -3.9780 0.0000 0.0000 -0.0000
-0.6094 40.1963 -4.4122 -1.9525 -5.3779 0.0133 0.0000 0.0000 0.0000 0.4199 -1.7255 -0.1125 -1.5587 -5.7985 1.8873 0.5288 -0.0672 -1.0997 0.0000 -0.0000 0.0000 0.0000 0.0000 0.0000 0.9832 -0.3364 -0.5426 3.4993 -1.1114 1.4191 -0.0000 0.0000 -0.0000 3.0775 -0.1587 -4.2922 -0.0000 0.0000 -0.0000 -34.5638 -2.6627 2.5035 -45.0010 -15.6999 -17.3846 -10.2582 5.0712 50.0443 13.5141 -3.4725 -1.0044 -0.0000 0.0000 -0.0000 34.3849 5.1062 3.4789 40.9158 5.6415 -16.1179 10.7704 0.3636 24.8668 -11.4217 1.8788 -0.6997 0.0000 0.0000 0.0000 2.7923 2.4240 0.2822 4.0260 18.0471 5.5896 -0.1122 0.0444 -3.9783 0.0000 0.0000 -0.0000
-0.6093 40.1963 -4.4109 -1.9590 -5.3466 0.0216 0.0000 0.0000 0.0000 0.4331 -1.7142 -0.1120 -1.5687 -5.8352 1.8837 0.5574 -0.0690 -1.1003 0.0000 -0.0000 0.0000 0.0000 0.0000 0.0000 0.9613 -0.3545 -0.5807 3.5293 -1.1364 1.4577 -0.0000 0.0000 -0.0000 3.0973 -0.0678 -4.2908 -0.0000 0.0000 -0.0000 -34.5726 -2.6413 2.4964 -44.9725 -15.7366 -17.3512 -10.2715 5.0662 49.9985 13.4675 -3.2928 -0.9812 -0.0000 0.0000 -0.0000 34.3602 5.1064 3.4811 40.9546 5.6549 -16.1168 10.7719 0.3347 24.8852 -11.4259 1.8386 -0.6963 0.0000 0.0000 0.0000 2.8037 2.4292 0.2636 4.0189 17.9946 5.5982 -0.0982 0.0435 -3.9785 0.0000 0.0000 -0.0000
-0.6093 40.1963 -4.4099 -1.9685 -5.3082 0.0313 0.0000 0.0000 0.0000 0.4434 -1.7139 -0.1107 -1.5659 -5.8724 1.8695 0.5484 -0.0685 -1.0952 0.0000 -0.0000 0.0000 0.0000 0.0000 0.0000 0.9511 -0.3786 -0.6193 3.5495 -1.1658 1.4824 -0.0000 0.0000 -0.0000 3.1120 -0.1087 -4.2441 -0.0000 0.0000 -0.0000 -34.5745 -2.6281 2.4934 -44.9288 -15.7357 -17.3811 -10.2621 5.0707 50.0154 13.3917 -3.3011 -0.9764 -0.0000 0.0000 -0.0000 34.3350 5.1053 3.4820 40.9840 5.6791 -16.1525 10.7629 0.2174 25.0364 -11.5395 2.0183 -0.7200 0.0000 0.0000 0.0000 2.8187 2.4383 0.2276 4.0238 17.9601 5.6394 -0.1048 0.0439 -3.9990 0.0000 0.0000 -0.0000
